<svg width="731" height="244" viewBox="0 0 731 244" fill="none" xmlns="http://www.w3.org/2000/svg">
<path fill-rule="evenodd" clip-rule="evenodd" d="M34.2974 0.125294H179.948C210.495 0.125294 238.207 12.6135 258.336 32.7032L221.496 102.704C219.788 94.5176 215.662 87.125 209.911 81.403C202.201 73.6762 191.616 68.873 179.948 68.873H68.5954H0V0.0835509H34.2974V0.125294ZM508.462 175.127L416.196 0.208845H310.886L301.969 17.1243L238.458 137.537L218.663 175.085H68.6371V105.252H0.0417145V243.958H266.462L363.562 62.6498L460.495 243.624H642.944C667.198 243.624 689.201 233.725 705.162 217.729C721.082 201.774 731 179.68 731 155.371V88.2527C731 63.9446 721.124 41.8918 705.162 25.8952C689.243 9.94042 667.198 0 642.944 0H529.341C504.836 0 482.124 8.06097 463.746 21.6351L496.71 84.2849C497.585 83.2407 498.502 82.1965 499.46 81.2359C507.128 73.5508 517.714 68.7477 529.341 68.7477H642.944C648.236 68.7477 653.111 70.9613 656.654 74.5115C660.196 78.0616 662.405 82.9066 662.405 88.2527V155.371C662.405 160.676 660.196 165.562 656.654 169.113C653.111 172.663 648.278 174.876 642.944 174.876H534.591L534.675 175.085H508.462V175.127ZM363.52 244H308.136L363.52 141.254L418.905 244H363.52Z" fill="#ffffff"/>
</svg>
