<svg width="61" height="20" viewBox="0 0 61 20" fill="none" xmlns="http://www.w3.org/2000/svg">
<g id="logo">
<path id="logo_2" fill-rule="evenodd" clip-rule="evenodd" d="M0 2.83009V5.65978L7.5695 5.66442C14.5959 5.66871 15.149 5.67082 15.2783 5.6938C15.4684 5.72758 15.8756 5.83041 15.9903 5.87356C16.042 5.89302 16.1751 5.95506 16.2861 6.01142C16.6133 6.17757 16.7982 6.29742 17.0122 6.48207C17.2356 6.67488 17.2943 6.73445 17.4596 6.93637C17.6859 7.2127 17.7305 7.28353 17.9162 7.66152C18.04 7.91332 18.1107 8.10673 18.1497 8.30046C18.1631 8.36721 18.1815 8.42419 18.1905 8.4271C18.1994 8.43002 18.2152 8.41215 18.2254 8.38738C18.2357 8.36262 18.2669 8.30463 18.2948 8.25853C18.3228 8.21243 18.4284 8.01305 18.5296 7.81547C18.6307 7.6179 18.7249 7.43975 18.7389 7.41959C18.7529 7.39943 18.8421 7.23117 18.9371 7.04569C19.032 6.86021 19.1241 6.68536 19.1415 6.65714C19.159 6.62891 19.2117 6.52994 19.2585 6.4372C19.3949 6.16743 19.477 6.01247 19.6467 5.70513C19.6976 5.61298 19.7446 5.5188 19.7512 5.49586C19.7578 5.47291 19.7806 5.42624 19.802 5.39216C19.873 5.27868 20.1462 4.76635 20.1462 4.74662C20.1462 4.73593 20.1715 4.6847 20.2024 4.63279C20.2936 4.47935 20.5329 4.03039 20.5584 3.96455C20.5714 3.93109 20.6052 3.86507 20.6334 3.81784C20.7026 3.70211 20.9527 3.23207 20.9527 3.21776C20.9527 3.21149 21.0159 3.09212 21.0931 2.95249C21.1703 2.81286 21.2313 2.68921 21.2287 2.67771C21.2224 2.65007 20.7697 2.21975 20.7018 2.17676C20.6726 2.15834 20.6099 2.10774 20.5625 2.06434C20.4618 1.9723 20.2432 1.80195 20.1902 1.77424C20.1701 1.76371 20.147 1.74709 20.1389 1.73731C20.1178 1.71169 19.6606 1.40051 19.5939 1.36635C19.563 1.35053 19.4949 1.31069 19.4424 1.27784C19.3223 1.20255 19.0955 1.07377 18.9806 1.01563C18.6212 0.833805 18.0679 0.588121 17.9514 0.558606C17.9207 0.55082 17.7603 0.498387 17.595 0.442083C17.104 0.274872 16.7581 0.190958 16.2314 0.111268C15.9181 0.0638641 15.6583 0.0337918 15.4029 0.0153317C15.2684 0.00561053 12.5776 0.000478796 7.59883 0.000434809L0 0.000375744V2.83009ZM25.4688 0.113716C25.4352 0.176061 25.3984 0.249154 25.3871 0.276162C25.3758 0.303171 25.3146 0.418769 25.2509 0.533048C25.1873 0.647328 25.0643 0.879391 24.9776 1.04874C24.8909 1.21809 24.8084 1.37315 24.7944 1.39331C24.7803 1.41347 24.6878 1.58832 24.5888 1.78187C24.4898 1.97541 24.3973 2.15026 24.3833 2.17042C24.3692 2.19058 24.2882 2.34268 24.2032 2.50842C24.1182 2.67417 23.9887 2.91815 23.9156 3.05064C23.8424 3.18311 23.7825 3.30229 23.7825 3.31549C23.7825 3.32867 23.7706 3.35519 23.7559 3.37443C23.7243 3.41597 23.5262 3.78115 23.379 4.06921C23.3213 4.18211 23.2288 4.35696 23.1734 4.45777C23.118 4.55857 23.0292 4.72682 22.9761 4.83166C22.923 4.9365 22.8341 5.10475 22.7786 5.20555C22.723 5.30636 22.6273 5.48781 22.5658 5.60877C22.5044 5.72974 22.3974 5.93211 22.328 6.05847C22.2587 6.18485 22.1719 6.3498 22.1352 6.42503C22.0985 6.50028 22.0344 6.62122 21.9929 6.69379C21.9513 6.76637 21.8676 6.92473 21.8067 7.04569C21.7459 7.16666 21.6552 7.33821 21.6053 7.42692C21.5554 7.51563 21.4401 7.73336 21.3491 7.91078C21.2581 8.0882 21.1724 8.24985 21.1585 8.27001C21.1447 8.29017 21.0951 8.38254 21.0483 8.47528C21.0016 8.56802 20.9572 8.65612 20.9496 8.67106C20.9303 8.70933 20.7694 9.0068 20.6541 9.2176C20.6006 9.3154 20.5568 9.40524 20.5568 9.41723C20.5568 9.42924 20.5445 9.45478 20.5294 9.47402C20.5143 9.49326 20.4788 9.55518 20.4504 9.61163C20.422 9.66808 20.3453 9.80986 20.2798 9.92669C20.2144 10.0435 20.1609 10.1493 20.1609 10.1617C20.1609 10.1741 20.1512 10.1981 20.1394 10.2149C20.1276 10.2318 20.0572 10.357 19.983 10.4931C19.9087 10.6293 19.8262 10.7802 19.7995 10.8286C19.7728 10.877 19.7509 10.9239 19.7507 10.9329C19.7504 10.9478 19.6664 11.104 19.4401 11.5103C19.393 11.595 19.3545 11.6714 19.3545 11.6801C19.3545 11.6888 19.3238 11.7515 19.2864 11.8195C19.1079 12.1436 19.0336 12.2823 18.9298 12.4855C18.8679 12.6064 18.7568 12.8166 18.6827 12.9526C18.6086 13.0885 18.548 13.204 18.548 13.2093C18.548 13.2145 18.501 13.3045 18.4436 13.4093C18.3861 13.5141 18.2568 13.7582 18.1562 13.9517C18.0555 14.1453 17.9665 14.3119 17.9582 14.3219C17.9463 14.3365 16.6957 14.3403 11.7942 14.3403H5.64505V11.4811V8.62191H2.82253H0V14.311V20L10.955 19.9963L21.91 19.9927L21.975 19.8754C22.0107 19.8108 22.1029 19.636 22.1799 19.4868C22.2569 19.3376 22.3315 19.199 22.3456 19.1789C22.3597 19.1587 22.4489 18.9938 22.5437 18.8123C22.6386 18.6309 22.7525 18.4197 22.7968 18.3431C22.8411 18.2665 22.905 18.1477 22.9389 18.0792C23.0187 17.9178 23.1229 17.7241 23.2191 17.5587C23.2613 17.4861 23.3282 17.3607 23.3677 17.2801C23.4072 17.1995 23.495 17.0345 23.5629 16.9135C23.6307 16.7926 23.7265 16.6144 23.7757 16.5176C23.825 16.4209 23.9205 16.2427 23.9881 16.1218C24.0556 16.0008 24.1512 15.8226 24.2005 15.7259C24.2497 15.6291 24.3453 15.451 24.4129 15.33C24.4804 15.209 24.5643 15.0516 24.5994 14.9801C24.6344 14.9086 24.6954 14.7955 24.7348 14.7287C24.7743 14.6619 24.8674 14.4895 24.9418 14.3455C25.0161 14.2015 25.116 14.0153 25.1638 13.9318C25.2115 13.8483 25.3041 13.6768 25.3694 13.5506C25.4348 13.4244 25.5178 13.2684 25.5539 13.2039C25.7225 12.9031 25.7913 12.7722 25.7913 12.7526C25.7913 12.7409 25.8035 12.7156 25.8185 12.6964C25.8335 12.6772 25.8902 12.5789 25.9446 12.4781C25.9989 12.3773 26.0731 12.2421 26.1093 12.1776C26.1455 12.113 26.1828 12.0405 26.1922 12.0163C26.2015 11.9921 26.2479 11.903 26.2952 11.8183C26.5322 11.3946 26.5816 11.3033 26.5907 11.2725C26.5961 11.2542 26.6255 11.1963 26.656 11.1439C26.7592 10.9668 26.9687 10.5798 27.0015 10.506C27.0194 10.4656 27.0699 10.3699 27.1138 10.2934C27.2258 10.0977 27.298 9.9636 27.4349 9.69689C27.5004 9.56935 27.5622 9.4551 27.5722 9.44301C27.5918 9.4193 27.672 9.26987 27.8516 8.92249C27.9141 8.80153 27.9767 8.68606 27.9908 8.6659C28.0048 8.64574 28.0938 8.48078 28.1886 8.29934C28.2834 8.11789 28.3997 7.90207 28.4472 7.81974C28.4946 7.73741 28.5617 7.61205 28.5964 7.54115C28.6311 7.47026 28.715 7.31328 28.7828 7.19232C28.8507 7.07135 28.9466 6.8932 28.9959 6.79643C29.0452 6.69966 29.1407 6.52151 29.2081 6.40055C29.2754 6.27958 29.3725 6.09813 29.4237 5.99733C29.475 5.89652 29.5728 5.71507 29.641 5.59411C29.7092 5.47314 29.7869 5.32831 29.8138 5.27224L29.8626 5.17032L29.9214 5.27957C30.0685 5.55302 30.2064 5.79959 30.2196 5.81278C30.2275 5.82073 30.234 5.83638 30.234 5.84754C30.234 5.86625 30.3044 5.99985 30.4714 6.29791C30.5075 6.36242 30.5917 6.52078 30.6585 6.64981C30.7253 6.77884 30.8178 6.95039 30.864 7.03103C30.9102 7.11168 31.0026 7.28323 31.0692 7.41226C31.1359 7.54129 31.233 7.72125 31.2852 7.81219C31.3373 7.90313 31.4027 8.02519 31.4305 8.08344C31.4583 8.1417 31.54 8.29494 31.6121 8.42397C31.6843 8.553 31.7817 8.73444 31.8287 8.82718C31.8757 8.91992 31.9694 9.09477 32.037 9.21574C32.1046 9.33671 32.2037 9.52145 32.2572 9.62629C32.3106 9.73113 32.4099 9.91587 32.4778 10.0368C32.5456 10.1578 32.6268 10.3096 32.6581 10.3741C32.6895 10.4386 32.7566 10.564 32.8072 10.6527C32.8579 10.7414 32.9725 10.954 33.0618 11.1252C33.1512 11.2964 33.24 11.4613 33.2592 11.4918C33.2784 11.5222 33.3783 11.7087 33.4813 11.9063C33.5843 12.1039 33.677 12.2754 33.6872 12.2875C33.6974 12.2996 33.76 12.4151 33.8261 12.5441C33.9598 12.8046 34.0075 12.8931 34.1441 13.1338C34.1954 13.2242 34.2507 13.3291 34.2669 13.3669C34.2945 13.4312 34.3686 13.5682 34.5277 13.8491C34.5643 13.9136 34.6381 14.0522 34.6917 14.157C34.7929 14.3547 34.9847 14.7054 35.0405 14.7948C35.0581 14.823 35.0725 14.8543 35.0726 14.8643C35.0726 14.8742 35.1033 14.9369 35.1408 15.0035C35.1784 15.0702 35.2553 15.2105 35.3118 15.3153C35.3683 15.4202 35.4267 15.5217 35.4415 15.5409C35.4564 15.5601 35.4685 15.5857 35.4685 15.5976C35.4685 15.6096 35.5057 15.6862 35.5512 15.7679C35.7336 16.0959 35.7784 16.1787 35.8925 16.3988C35.9578 16.5249 36.0499 16.6956 36.097 16.7781C36.1442 16.8607 36.2394 17.0377 36.3085 17.1715C36.3776 17.3053 36.4709 17.4783 36.5158 17.5561C36.5607 17.6339 36.6282 17.7586 36.6659 17.8334C36.7036 17.9081 36.7874 18.0649 36.8521 18.1818C36.9168 18.2988 37.0104 18.4736 37.06 18.5704C37.1097 18.6672 37.2052 18.8453 37.2722 18.9663C37.3392 19.0872 37.4382 19.272 37.4921 19.3768C37.546 19.4817 37.6432 19.6631 37.7081 19.78L37.8261 19.9927L45.2725 19.9969C50.216 19.9998 52.8397 19.9961 53.0781 19.9861C53.7974 19.9558 54.2971 19.8673 55.0209 19.6421C55.4169 19.519 55.7212 19.3958 56.0155 19.2398C56.0787 19.2063 56.1381 19.1788 56.1475 19.1788C56.2058 19.1784 57.0528 18.6397 57.193 18.5138C57.2322 18.4786 57.3039 18.4225 57.3523 18.389C57.445 18.3249 57.7635 18.0404 57.9381 17.8659C58.1081 17.6959 58.3977 17.3732 58.4506 17.2948C58.4779 17.2544 58.5213 17.1984 58.547 17.1701C58.6 17.1122 58.7938 16.8496 58.8352 16.7796C58.8685 16.7234 59.0624 16.4132 59.1272 16.3124C59.1663 16.2516 59.4134 15.7464 59.5253 15.4986C59.6665 15.1857 59.8789 14.453 59.9608 13.9957C60.0569 13.4594 60.0501 13.7608 60.0501 9.98552C60.0501 6.79542 60.0484 6.54933 60.0243 6.37855C59.9563 5.89563 59.8556 5.45089 59.7206 5.03694C59.6811 4.91597 59.641 4.79061 59.6313 4.75835C59.5783 4.5809 59.2745 3.92952 59.1151 3.65133C58.8908 3.26011 58.5866 2.83498 58.2764 2.47948C58.0895 2.2653 57.7028 1.87779 57.5649 1.76637C57.5124 1.72404 57.4102 1.63957 57.3376 1.57864C57.265 1.51774 57.1495 1.43026 57.081 1.38426C57.0125 1.33825 56.9201 1.27336 56.8757 1.24003C56.6785 1.09181 56.0733 0.750596 55.786 0.62551C55.3817 0.449546 54.8162 0.256324 54.5004 0.186208C54.1751 0.11401 53.7126 0.0436301 53.3787 0.0154928C53.1323 -0.00525456 43.126 -0.00512245 42.8577 0.0156396C42.2504 0.0626328 41.6252 0.164699 41.1498 0.294447C40.7368 0.407157 40.0823 0.63617 39.856 0.747091C39.8055 0.771871 39.7612 0.792149 39.7575 0.792149C39.7349 0.792149 39.1683 1.0727 39.1048 1.11532C39.0846 1.12884 38.9725 1.195 38.8555 1.26232C38.5799 1.42099 38.4743 1.48898 38.269 1.63987C38.1763 1.70805 38.0953 1.76841 38.089 1.77399C38.0827 1.77958 38.1084 1.83972 38.146 1.90764C38.1837 1.97556 38.2539 2.11031 38.3022 2.20708C38.3505 2.30385 38.4379 2.4688 38.4963 2.57364C38.5547 2.67848 38.6489 2.8568 38.7055 2.96991C38.7621 3.08303 38.8577 3.26448 38.9178 3.37313C38.9779 3.48179 39.0702 3.65646 39.1229 3.7613C39.1755 3.86614 39.2534 4.01459 39.2959 4.09121C39.3384 4.16782 39.4342 4.34927 39.5087 4.49442C39.5832 4.63958 39.6814 4.82433 39.727 4.90497C39.7725 4.98562 39.8419 5.11758 39.8812 5.19822C39.9205 5.27887 40.0105 5.45042 40.0811 5.57945C40.1518 5.70848 40.2634 5.91962 40.3292 6.04865C40.3949 6.17768 40.4907 6.35912 40.542 6.45186C40.5933 6.5446 40.6705 6.6919 40.7135 6.77919C40.7566 6.86647 40.7971 6.93575 40.8035 6.93314C40.8099 6.93053 40.8697 6.86731 40.9365 6.79265C41.0949 6.61553 41.4936 6.27361 41.6048 6.21962C41.629 6.20787 41.7246 6.15357 41.8174 6.09897C42.0595 5.95638 42.3218 5.85041 42.6091 5.77915C43.101 5.65716 42.5527 5.66892 48.0123 5.6633C51.6859 5.65953 52.9126 5.66254 53.0122 5.67556C53.4351 5.73087 53.828 5.95878 54.0756 6.29241C54.2526 6.53089 54.366 6.81162 54.3968 7.08725C54.4187 7.28418 54.4185 12.7031 54.3966 12.9002C54.3796 13.0519 54.3174 13.2674 54.2509 13.4048C54.1982 13.5135 54.0301 13.7582 53.9525 13.8389C53.8746 13.92 53.618 14.1065 53.5079 14.1619C53.3944 14.2191 53.1668 14.2922 53.0488 14.3094C52.9906 14.3179 50.7789 14.3252 47.3671 14.3281L41.7807 14.3329L41.6781 14.1418C41.6216 14.0367 41.5606 13.9271 41.5424 13.8982C41.5243 13.8693 41.5093 13.8365 41.5092 13.8254C41.509 13.8085 41.3316 13.4754 41.1626 13.1746C41.1399 13.1343 41.1171 13.0873 41.1119 13.0701C41.1015 13.0361 40.9907 12.8266 40.9151 12.6981C40.889 12.6537 40.7934 12.4723 40.7028 12.2949C40.6121 12.1174 40.5265 11.9558 40.5125 11.9356C40.4985 11.9155 40.4126 11.7538 40.3217 11.5764C40.2308 11.399 40.1265 11.201 40.0901 11.1365C40.0535 11.072 39.9645 10.9038 39.8922 10.7626C39.8199 10.6215 39.7128 10.4203 39.6543 10.3154C39.5957 10.2106 39.5211 10.0687 39.4885 10.0002C39.4559 9.93163 39.3795 9.78648 39.3187 9.67761C39.2579 9.56874 39.1653 9.39389 39.1129 9.28905C39.0606 9.18422 38.9703 9.01266 38.9122 8.90783C38.8542 8.80299 38.7562 8.61824 38.6944 8.49728C38.6326 8.37631 38.5405 8.20146 38.4897 8.10872C38.4388 8.01598 38.343 7.83453 38.2767 7.7055C38.1281 7.41639 37.9215 7.03685 37.9022 7.01753C37.8943 7.00962 37.8878 6.99294 37.8878 6.98045C37.8878 6.96794 37.8245 6.84224 37.7471 6.70113C37.6697 6.56 37.5369 6.30927 37.452 6.14395C37.3671 5.97863 37.2862 5.82688 37.2722 5.80672C37.2582 5.78655 37.1658 5.6117 37.0669 5.41816C36.968 5.22462 36.8755 5.04977 36.8615 5.0296C36.8474 5.00944 36.765 4.85439 36.6783 4.68504C36.5916 4.51568 36.4714 4.28871 36.411 4.18066C36.3507 4.0726 36.2896 3.95713 36.2753 3.92407C36.2609 3.89099 36.1845 3.74517 36.1054 3.60001C36.0264 3.45485 35.9111 3.23712 35.8493 3.11615C35.7875 2.99519 35.6985 2.82693 35.6515 2.74226C35.6045 2.65758 35.5157 2.48933 35.4542 2.36836C35.3926 2.2474 35.2968 2.06595 35.2412 1.96515C35.1856 1.86434 35.0967 1.69609 35.0436 1.59125C34.9905 1.48642 34.8983 1.31157 34.8387 1.2027C34.7791 1.09383 34.6866 0.91898 34.6332 0.814143C34.5798 0.709306 34.475 0.511363 34.4003 0.374269C34.3256 0.237175 34.2521 0.0969574 34.2369 0.0626912L34.2092 0.000375744H29.8695H25.5299L25.4688 0.113716ZM29.8264 11.6177C29.8167 11.6445 29.7631 11.7462 29.7072 11.8438C29.6513 11.9413 29.5349 12.1553 29.4486 12.3193C29.3623 12.4833 29.2571 12.6768 29.2148 12.7494C29.1726 12.822 29.0868 12.9803 29.0241 13.1013C28.9614 13.2223 28.8804 13.374 28.8441 13.4385C28.6663 13.7549 28.6211 13.84 28.6211 13.8591C28.6211 13.8705 28.615 13.8861 28.6074 13.8938C28.587 13.9146 28.3354 14.3658 28.2319 14.5675C28.1823 14.6643 28.09 14.8359 28.0269 14.9488C27.9639 15.0617 27.8676 15.242 27.8129 15.3495C27.7583 15.4571 27.7074 15.5527 27.6998 15.5621C27.6796 15.5873 27.4512 16.0092 27.3612 16.1877C27.3185 16.2724 27.2753 16.3516 27.2652 16.3637C27.2456 16.387 27.0083 16.8237 27.0083 16.8363C27.0083 16.8466 26.8673 17.1041 26.8175 17.1848C26.7951 17.2211 26.7026 17.3926 26.612 17.566C26.5214 17.7394 26.4124 17.9406 26.3699 18.0132C26.3273 18.0858 26.2632 18.2046 26.2274 18.2771C26.1679 18.3978 26.0398 18.633 25.8799 18.915C25.8457 18.9754 25.81 19.0447 25.8008 19.0689C25.785 19.1102 25.7461 19.1812 25.5198 19.5821C25.4697 19.6708 25.4034 19.7962 25.3725 19.8607C25.3416 19.9252 25.3137 19.9829 25.3106 19.989C25.3075 19.995 27.3575 20 29.8662 20C32.3749 20 34.4275 19.9947 34.4275 19.9883C34.4275 19.9818 34.4216 19.9703 34.4144 19.9626C34.4072 19.9549 34.3569 19.8629 34.3026 19.7581C34.1597 19.482 34.0807 19.3355 33.9943 19.1862C33.9522 19.1136 33.8884 18.9949 33.8525 18.9223C33.7942 18.8047 33.7388 18.7034 33.5215 18.3169C33.4884 18.2581 33.4569 18.1955 33.4514 18.1776C33.4459 18.1598 33.4166 18.1023 33.3862 18.0499C33.2793 17.865 33.1027 17.542 33.0134 17.3681C32.9638 17.2713 32.8712 17.0997 32.8075 16.9868C32.7439 16.8739 32.6643 16.7255 32.6306 16.6569C32.5969 16.5884 32.5333 16.4696 32.4893 16.393C32.3927 16.225 32.3192 16.0897 32.2016 15.8634C32.153 15.7697 32.0771 15.6306 32.0331 15.5543C31.989 15.478 31.8968 15.3073 31.8281 15.1749C31.7594 15.0424 31.6785 14.8912 31.6483 14.8388C31.528 14.6302 31.4604 14.5065 31.4401 14.4576C31.4183 14.4055 31.3299 14.2431 31.1645 13.9517C31.1142 13.863 31.0472 13.7376 31.0156 13.6731C30.9619 13.5635 30.8069 13.2805 30.6836 13.0669C30.6541 13.0157 30.6299 12.9661 30.6299 12.9567C30.6299 12.9472 30.5899 12.8704 30.541 12.7858C30.4921 12.7013 30.4126 12.558 30.3643 12.4675C30.316 12.377 30.2707 12.2994 30.2636 12.295C30.2566 12.2907 30.2434 12.2646 30.2343 12.2371C30.2037 12.1445 29.8815 11.5691 29.8602 11.5691C29.8513 11.5691 29.8361 11.591 29.8264 11.6177Z" fill="url(#paint0_linear_39_1663)"/>
</g>
<defs>
<linearGradient id="paint0_linear_39_1663" x1="60" y1="10" x2="3.79361e-07" y2="10" gradientUnits="userSpaceOnUse">
<stop stop-color="#F9712B"/>
<stop offset="1" stop-color="#522B72"/>
</linearGradient>
</defs>
</svg>
