<svg width="220" height="220" viewBox="0 0 220 220" fill="none" xmlns="http://www.w3.org/2000/svg">
<g clip-path="url(#clip0_22_1278)">
<path d="M110 0C170.746 0 220 49.2536 220 110C220 170.746 170.746 220 110 220C49.2536 220 0 170.746 0 110C0 49.2536 49.2536 0 110 0Z" fill="#F0B90B"/>
<path d="M35.2 110.035L53.8824 91.3528L72.5648 110.035L53.8824 128.718L35.2 110.035ZM166.118 91.2296L91.2296 166.118L109.912 184.8L184.8 109.912L166.118 91.2296ZM63.2192 138.054L138.107 63.1664L156.79 81.8488L81.9016 156.737L63.2192 138.054ZM63.184 82.06L110.044 35.2L128.726 53.8824L81.8664 100.742L63.184 82.06Z" fill="white"/>
</g>
<defs>
<clipPath id="clip0_22_1278">
<rect width="220" height="220" fill="white"/>
</clipPath>
</defs>
</svg>
